<svg xmlns="http://www.w3.org/2000/svg" viewBox="0 0 1455 2048" fill="#FFFFFF">
<g transform="translate(0,2048) scale(0.1,-0.1)">
<path d="M7051 16933 c-7 -318 -15 -581 -18 -585 -2 -5 0 -8 4 -8 5 0 43 35
86 78 l77 78 -2 479 -3 480 -55 27 c-30 15 -60 28 -66 28 -7 0 -14 -187 -23
-577z"/>
<path d="M7444 16824 c3 -9 6 -1244 6 -2745 0 -1501 3 -2729 8 -2729 6 0 315
178 359 207 9 6 13 441 15 1890 3 1865 4 1920 32 1874 4 -5 66 -49 139 -97
145 -97 293 -202 346 -245 19 -16 38 -26 42 -24 4 3 5 22 3 43 -11 117 -29
262 -55 457 -16 121 -34 254 -39 295 -40 304 -40 303 -75 356 -18 28 -80 93
-137 144 -56 51 -143 132 -193 180 -49 48 -115 109 -145 136 -30 27 -108 100
-174 162 -113 107 -145 131 -132 96z"/>
<path d="M7095 16122 c-55 -53 -193 -188 -308 -299 -166 -162 -219 -221 -266
-294 -76 -116 -78 -133 -87 -529 -7 -332 -11 -374 -49 -453 -33 -70 -70 -107
-389 -398 -189 -171 -231 -235 -272 -410 -16 -67 -18 -182 -24 -1219 -7 -1246
-4 -1177 -64 -1319 -37 -86 -75 -154 -169 -295 -79 -121 -265 -372 -370 -501
-31 -38 -102 -126 -158 -193 -55 -68 -99 -125 -97 -127 2 -2 46 18 98 44 81
40 165 78 495 226 28 12 111 48 185 80 74 32 225 100 335 150 l200 91 5 1410
5 1409 29 65 c49 109 106 177 297 360 100 96 301 292 446 435 l264 260 -1 803
c0 441 -1 802 -2 802 -2 0 -48 -44 -103 -98z"/>
<path d="M8058 14668 c2 -227 3 -233 25 -252 57 -47 329 -299 396 -367 111
-112 108 -98 136 -619 3 -52 8 -120 11 -152 l6 -56 146 -6 c81 -4 178 -9 215
-12 l68 -5 -6 83 c-3 46 -12 198 -21 338 -9 147 -21 277 -30 306 -17 61 -70
151 -122 209 -20 23 -70 79 -109 126 -70 81 -140 149 -343 330 -148 132 -358
309 -367 309 -4 0 -7 -105 -5 -232z"/>
<path d="M7096 14187 l-96 -94 0 -1491 c0 -821 3 -1492 6 -1492 3 0 48 24 100
53 l94 52 0 1533 c0 842 -2 1532 -4 1532 -2 0 -47 -42 -100 -93z"/>
<path d="M8060 14162 c0 -4 -1 -556 -2 -1227 -2 -932 1 -1219 10 -1218 6 2 84
51 173 109 l162 106 -7 632 c-4 347 -11 773 -16 946 -8 277 -12 322 -30 375
-11 32 -30 70 -43 83 -31 33 -247 204 -247 194z"/>
<path d="M6624 13738 c-84 -86 -139 -151 -155 -183 l-24 -50 -1 -1337 c-1
-736 2 -1338 6 -1338 5 0 52 21 104 46 l96 46 0 1307 0 1306 37 55 c20 30 47
68 60 83 20 25 23 39 23 113 0 46 -4 84 -8 84 -5 0 -67 -60 -138 -132z"/>
<path d="M10295 13004 c-135 -119 -559 -445 -885 -682 -45 -32 -757 -506 -795
-529 -11 -6 -73 -44 -138 -85 -146 -90 -261 -161 -307 -188 -19 -12 -75 -46
-125 -77 -49 -30 -108 -65 -130 -78 -22 -12 -83 -47 -135 -77 -106 -62 -279
-161 -355 -204 -27 -15 -111 -60 -185 -99 -74 -40 -218 -116 -320 -170 -102
-54 -234 -125 -295 -157 -258 -137 -871 -435 -1125 -548 -151 -67 -299 -133
-328 -146 -29 -13 -54 -24 -57 -24 -2 0 -64 -28 -137 -61 -73 -34 -149 -67
-168 -74 -98 -36 -444 -208 -735 -365 -134 -73 -295 -187 -295 -210 0 -4 300
-5 667 -3 368 1 787 3 933 3 l265 0 100 99 c55 54 125 118 156 142 31 24 101
80 155 124 114 92 146 117 309 240 134 101 123 93 271 194 60 41 143 97 184
126 166 115 278 191 335 229 94 62 559 397 670 483 55 42 146 111 202 153 106
81 371 289 600 473 117 94 190 154 293 241 14 11 50 41 80 66 154 126 510 436
745 650 188 171 614 589 600 589 -5 0 -28 -16 -50 -35z"/>
<path d="M2880 13019 c-179 -17 -370 -75 -489 -148 -200 -124 -348 -363 -413
-668 l-23 -108 -3 -1437 -3 -1438 420 0 420 0 3 678 3 677 28 48 c18 31 42 55
70 70 l42 22 1012 3 1011 2 92 132 c126 181 319 518 332 579 2 11 -215 12
-1192 10 -657 -2 -1242 0 -1299 4 l-103 8 5 231 c5 234 13 287 52 369 45 96
155 175 274 197 34 6 468 10 1182 10 l1129 0 0 385 0 385 -1232 -1 c-678 -1
-1271 -5 -1318 -10z"/>
<path d="M8630 12545 l0 -486 58 37 c31 21 143 91 247 157 360 226 658 433
936 648 47 37 102 77 122 90 20 13 37 27 37 32 0 4 -315 7 -700 7 l-700 0 0
-485z"/>
<path d="M10776 12998 c-82 -106 -315 -412 -360 -472 -29 -39 -87 -113 -130
-164 -49 -59 -72 -94 -64 -97 7 -3 304 -6 659 -7 l646 -3 69 -35 c79 -40 135
-105 160 -185 25 -76 30 -256 10 -333 -30 -118 -107 -196 -230 -233 -58 -18
-112 -19 -1003 -19 l-941 0 -239 -268 c-131 -148 -263 -298 -293 -333 -53 -61
-236 -269 -363 -414 l-62 -69 -3 -571 -2 -570 992 3 c2222 5 2171 4 2348 51
245 66 448 199 553 363 126 198 171 373 171 658 -1 286 -57 501 -176 672 -46
65 -157 163 -205 180 -18 7 -33 15 -33 18 0 4 39 47 88 96 147 150 204 289
231 569 15 146 -4 359 -46 515 -92 345 -313 565 -650 647 -108 26 -109 26
-604 30 l-497 4 -26 -33z m752 -2168 c96 -16 166 -46 222 -97 101 -90 134
-188 128 -378 -3 -109 -6 -126 -34 -185 -41 -87 -76 -126 -144 -160 -123 -62
-83 -60 -1161 -60 -900 0 -984 1 -1001 17 -17 15 -18 42 -18 428 0 440 -1 428
50 438 54 10 1896 7 1958 -3z"/>
<path d="M10195 12694 c-183 -179 -270 -263 -430 -414 -249 -234 -390 -366
-485 -452 -58 -52 -163 -148 -235 -213 -167 -152 -504 -443 -660 -570 -251
-205 -372 -302 -440 -355 -411 -318 -487 -381 -655 -545 -204 -198 -379 -392
-508 -561 -85 -111 -242 -339 -242 -350 0 -5 273 -9 607 -8 l608 1 31 89 c104
298 133 374 199 509 77 160 176 314 302 473 85 106 273 330 363 432 32 36 100
112 151 170 97 111 200 228 260 295 78 88 293 340 440 515 361 431 619 765
826 1068 17 26 35 52 40 57 5 6 12 16 17 23 22 36 -27 -6 -189 -164z"/>
<path d="M5055 8880 l-6 -55 -100 3 -99 4 0 -66 0 -65 103 -3 102 -3 0 -50 0
-50 -125 0 -125 0 -3 58 -3 57 -52 0 -52 0 3 110 3 110 -70 0 -71 0 0 -109 c0
-100 -2 -109 -20 -114 -28 -7 -31 2 -20 69 7 42 6 60 -2 65 -16 10 -96 21
-106 15 -5 -3 -12 -40 -15 -83 -6 -67 -33 -211 -52 -278 -5 -18 2 -25 44 -45
28 -13 53 -22 55 -19 2 2 13 33 24 69 19 63 20 65 56 68 l37 3 -3 -112 -3
-112 -103 -24 c-87 -21 -102 -28 -96 -42 3 -9 11 -36 16 -61 6 -25 13 -49 18
-53 4 -4 29 1 56 11 27 11 64 23 82 27 l32 7 0 -191 0 -191 70 0 70 0 0 214 0
213 43 17 c60 23 67 21 67 -18 l0 -34 184 5 c138 3 186 1 192 -8 4 -7 8 -65 8
-131 l1 -118 -83 0 c-82 0 -83 0 -76 -22 4 -13 13 -43 19 -68 11 -41 15 -45
46 -48 19 -2 63 -1 98 3 53 6 69 12 100 40 l36 33 3 156 4 156 36 2 c21 1 48
2 61 3 24 1 25 3 22 60 -1 33 -5 62 -7 64 -2 3 -27 5 -55 6 -28 1 -54 7 -58
13 -4 6 -5 29 -3 51 l4 40 66 3 66 3 0 60 0 60 -137 3 -137 3 0 54 0 55 110 0
111 0 -3 63 -3 62 -107 0 -107 0 -3 53 -3 54 -67 1 -67 2 -6 -55z m-275 -365
l0 -55 204 0 204 0 6 -35 c4 -20 4 -45 1 -56 -6 -19 -15 -19 -193 -17 l-187 3
-3 25 c-5 38 -14 41 -65 26 -25 -7 -48 -11 -51 -8 -8 8 -7 157 1 165 3 4 24 7
45 7 l38 0 0 -55z"/>
<path d="M6022 8885 c-28 -31 -79 -80 -114 -109 -74 -64 -255 -180 -304 -196
l-35 -12 41 -44 c22 -24 40 -49 40 -55 0 -22 59 0 151 56 85 52 117 61 105 29
-3 -8 -3 -21 0 -29 5 -13 42 -15 245 -15 l239 0 0 24 c0 13 3 32 6 41 6 14 9
14 28 2 12 -8 64 -38 116 -67 l94 -52 18 23 c10 13 32 41 48 61 33 40 36 48
19 48 -7 0 -62 25 -123 56 -119 60 -261 161 -341 243 l-49 51 -67 0 -67 0 -50
-55z m296 -245 c1 -3 -76 -4 -170 -3 -95 2 -175 3 -177 3 -2 0 36 38 85 84
l89 84 85 -81 c47 -45 86 -84 88 -87z"/>
<path d="M7595 8863 c-100 -38 -305 -71 -497 -79 -131 -6 -148 -9 -142 -23 3
-9 13 -38 21 -65 l15 -48 141 7 c78 4 147 8 152 8 10 2 25 -150 16 -159 -2 -2
-103 -4 -223 -4 l-219 0 3 -72 3 -73 212 0 c116 0 214 -3 217 -6 9 -9 -23
-110 -52 -159 -35 -61 -127 -157 -182 -188 -25 -14 -47 -27 -49 -29 -5 -4 10
-16 87 -69 l54 -38 34 19 c48 26 154 140 192 206 31 55 66 154 76 220 l6 36
120 7 c65 4 158 4 205 0 l86 -7 -3 74 -3 74 -203 3 -203 2 3 92 3 92 110 24
c163 35 170 37 169 46 -3 13 -94 126 -101 125 -5 0 -26 -7 -48 -16z"/>
<path d="M9596 8788 c-20 -90 -121 -400 -185 -568 -39 -104 -40 -105 -78 -112
-21 -4 -55 -7 -75 -7 -42 -1 -47 -15 -28 -75 5 -17 12 -44 15 -60 6 -28 6 -29
63 -23 143 15 413 48 529 64 71 9 148 17 173 18 l45 0 25 -62 c14 -34 28 -64
31 -67 5 -5 118 39 146 57 13 8 12 10 -63 166 -54 112 -158 297 -178 319 -10
10 -25 8 -77 -14 -35 -15 -66 -29 -68 -30 -2 -2 12 -31 32 -66 19 -35 47 -84
61 -110 l26 -47 -32 -5 c-144 -21 -363 -42 -388 -37 -24 5 -24 8 0 63 13 29
35 89 51 133 15 44 53 152 84 240 68 192 88 255 82 262 -3 2 -34 11 -69 18
-34 8 -72 17 -83 20 -18 5 -22 -2 -39 -77z"/>
<path d="M8073 8474 c-2 -6 -3 -46 -1 -88 l3 -78 485 1 485 1 3 85 c1 47 -1
85 -5 85 -722 5 -966 4 -970 -6z"/>
<path d="M5707 8423 c-4 -3 -7 -123 -7 -265 l0 -258 65 0 65 0 0 45 c0 40 3
45 23 46 12 0 73 0 135 -1 l112 -1 0 220 0 221 -193 0 c-107 0 -197 -3 -200
-7z m263 -213 l0 -90 -70 0 -70 0 0 90 0 90 70 0 70 0 0 -90z"/>
<path d="M6178 8423 c-9 -18 -8 -587 1 -592 5 -3 37 -4 71 -1 l62 5 -2 233 -1
232 86 0 86 0 -3 -117 -3 -118 -58 -3 c-59 -3 -59 -3 -51 -30 4 -15 10 -45 13
-67 l6 -40 65 3 c79 4 127 27 152 72 14 28 18 57 18 150 0 63 -3 152 -7 198
l-6 82 -213 0 c-117 0 -214 -3 -216 -7z"/>
<path d="M4898 8188 c-21 -12 -38 -28 -38 -36 0 -8 25 -45 55 -84 30 -39 56
-75 58 -82 2 -6 27 5 60 28 47 33 55 42 46 57 -15 30 -120 139 -133 139 -6 0
-28 -10 -48 -22z"/>
<path d="M2495 7588 c-3 -7 -6 -80 -7 -163 l-3 -150 -342 -3 -343 -2 0 -125 0
-125 314 0 c172 0 328 -3 345 -6 l31 -6 0 -144 0 -144 -429 0 c-334 0 -430 -3
-432 -12 -2 -7 -4 -65 -4 -128 l0 -115 358 -3 c196 -1 357 -6 357 -10 0 -4
-44 -57 -98 -117 -97 -108 -247 -241 -353 -312 -30 -20 -65 -44 -79 -53 -14
-9 -74 -43 -133 -74 -59 -32 -107 -61 -107 -65 0 -4 21 -27 46 -51 25 -25 68
-73 95 -107 l50 -62 47 26 c133 73 288 189 417 312 72 68 217 224 251 269 11
14 13 -46 14 -346 l0 -363 143 3 142 3 0 363 c0 199 3 361 7 360 4 -2 30 -30
58 -63 182 -212 415 -412 607 -522 l71 -41 39 56 c21 31 65 84 99 118 l61 61
-126 64 c-131 66 -243 137 -347 220 -67 53 -314 305 -314 320 0 5 149 9 359 9
198 0 362 3 364 8 3 4 2 62 -1 130 l-5 122 -433 0 -434 0 0 144 c0 125 2 145
17 150 9 4 165 6 347 6 l331 -2 0 127 0 126 -342 -1 c-215 0 -344 3 -348 9 -3
6 -7 79 -8 163 l-2 153 -138 3 c-104 2 -139 0 -142 -10z"/>
<path d="M4840 7465 l0 -125 -390 0 -390 0 0 -126 0 -126 180 4 c99 2 180 1
180 -3 0 -6 -114 -54 -177 -73 -30 -10 -29 -18 12 -86 37 -61 123 -249 132
-287 l5 -23 -216 0 -217 0 3 -127 3 -128 343 -3 c188 -1 342 -6 342 -10 0 -30
-265 -261 -419 -365 -63 -43 -268 -154 -312 -169 -10 -4 7 -27 51 -75 73 -78
94 -102 110 -132 6 -12 16 -21 22 -21 26 0 221 120 333 204 113 86 280 242
355 332 19 23 39 41 44 40 4 0 9 -147 10 -326 l1 -325 143 0 143 0 -1 333 c0
182 1 332 4 332 2 0 80 -76 173 -168 93 -93 196 -187 229 -210 32 -23 84 -59
115 -81 31 -22 95 -60 143 -86 l86 -47 20 24 c11 12 19 26 20 30 0 11 120 152
136 161 20 12 17 25 -8 33 -49 15 -228 109 -308 161 -121 80 -210 152 -323
262 l-98 96 348 5 348 5 3 128 3 127 -221 0 c-121 0 -220 2 -220 4 0 3 26 47
59 98 32 51 81 136 109 188 l50 96 -106 36 c-59 20 -108 40 -109 45 -2 4 73 6
167 5 l170 -4 0 126 0 126 -396 0 -395 0 2 123 1 122 -146 3 -146 3 0 -126z
m2 -607 c2 -152 -1 -232 -7 -235 -23 -8 -390 2 -370 11 49 22 123 54 153 65
17 8 32 16 32 20 0 26 -118 260 -169 335 -11 17 -18 32 -16 35 2 3 87 5 189 3
l185 -3 3 -231z m678 222 c0 -12 -118 -255 -160 -328 l-30 -53 23 -8 c99 -39
133 -54 142 -62 6 -6 -58 -8 -174 -7 l-183 3 -4 225 c-1 123 0 228 2 232 8 12
384 10 384 -2z"/>
<path d="M6793 7551 c-25 -44 -181 -228 -239 -282 -65 -60 -183 -152 -240
-187 l-54 -33 76 -99 c41 -55 79 -100 84 -100 4 0 13 7 20 15 7 8 19 15 27 15
13 0 14 -38 10 -287 -4 -248 -8 -302 -26 -388 -36 -161 -86 -303 -141 -394
-50 -85 -57 -101 -41 -101 4 0 47 -36 94 -80 l86 -81 54 93 c30 51 67 126 82
166 16 39 31 72 34 72 3 0 6 -80 6 -177 l0 -178 108 -3 c81 -2 107 0 109 10 0
7 1 20 2 28 1 13 31 15 194 18 l192 2 0 -25 0 -25 115 0 115 0 0 304 0 303
-385 0 c-211 -1 -387 1 -389 4 -3 3 -2 25 2 50 l8 44 362 3 362 2 0 330 0 330
-392 2 c-216 1 -415 1 -441 0 -26 -2 -55 1 -63 6 -13 7 -8 14 23 37 21 16 57
47 80 68 47 44 57 46 58 14 l0 -22 270 0 270 0 5 64 5 64 65 -61 65 -62 34 38
c18 20 56 61 83 91 l50 54 -59 56 c-59 56 -179 152 -283 226 -30 21 -74 56
-97 77 l-43 38 -117 0 -118 0 -22 -39z m280 -274 c53 -44 97 -83 97 -88 0 -5
-83 -9 -185 -9 -102 0 -185 4 -185 8 0 5 14 21 31 38 17 16 51 55 76 87 27 35
49 55 56 50 7 -3 56 -42 110 -86z m107 -582 l0 -45 -230 0 -230 0 0 45 0 45
230 0 230 0 0 -45z m-2 -240 l2 -45 -232 2 -233 3 -3 43 -3 42 234 0 234 0 1
-45z m47 -595 l0 -85 -187 -3 -188 -2 0 83 c0 46 3 87 7 91 4 3 88 5 187 4
l181 -3 0 -85z"/>
<path d="M9838 7468 l-3 -123 -74 2 c-40 1 -75 4 -78 6 -2 3 8 39 23 82 18 50
24 79 17 86 -5 5 -32 14 -59 19 -27 5 -69 14 -94 19 -82 18 -83 18 -106 -56
-42 -133 -129 -297 -211 -400 l-34 -42 70 -35 c38 -20 86 -45 106 -56 19 -11
40 -20 45 -20 5 0 32 33 60 73 82 117 62 107 210 107 l130 0 0 -100 0 -101
-182 1 c-101 0 -236 1 -301 0 l-118 0 3 -112 3 -113 725 0 725 0 3 113 3 112
-296 0 -295 0 0 100 0 101 243 -2 242 -1 3 108 3 109 -243 0 -243 0 -3 123 -3
122 -134 0 -134 0 -3 -122z"/>
<path d="M8047 7564 c-4 -4 -7 -402 -7 -885 l0 -878 -22 -15 c-18 -13 -53 -16
-170 -16 -96 0 -148 -4 -148 -10 0 -6 8 -27 18 -48 10 -20 26 -64 36 -97 31
-107 29 -105 88 -105 82 1 253 18 299 30 55 15 123 80 146 138 17 44 18 105
18 967 l0 920 -126 3 c-69 1 -128 -1 -132 -4z"/>
<path d="M8740 7483 c-52 -42 -95 -79 -95 -83 0 -4 23 -25 50 -47 44 -34 181
-177 273 -283 l30 -34 92 82 c51 45 97 82 101 82 26 0 -1 40 -88 130 -79 83
-252 232 -265 229 -2 0 -46 -35 -98 -76z"/>
<path d="M11202 7506 c-3 -6 -6 -190 -8 -410 -2 -403 -8 -503 -46 -761 -29
-202 -103 -412 -194 -557 -13 -21 -24 -40 -24 -42 0 -3 24 -23 53 -44 29 -22
78 -62 109 -91 l57 -52 27 43 c113 178 223 524 254 797 6 52 13 97 16 100 8 8
958 11 1133 4 l144 -6 -6 -191 c-7 -209 -34 -423 -61 -473 -28 -55 -97 -83
-159 -66 l-28 8 -2 295 -2 295 -452 3 -453 2 0 -370 0 -370 125 0 125 0 0 65
0 65 260 0 c244 0 260 -1 260 -18 0 -10 4 -22 9 -28 6 -5 21 -49 34 -99 l23
-90 105 -3 c109 -4 219 10 279 35 132 54 181 217 210 698 14 246 13 485 -2
485 -7 0 -351 0 -765 0 -488 0 -752 3 -755 10 -1 5 -1 39 0 75 l4 65 681 2
682 3 -3 310 c-1 171 -6 311 -10 313 -24 8 -1615 6 -1620 -2z m1341 -221 c14
-6 17 -21 17 -91 l0 -84 -545 0 -545 0 0 83 c0 46 2 86 5 89 8 8 1047 10 1068
3z m-325 -1227 l3 -98 -205 0 -205 0 -3 96 c-2 53 -2 97 0 99 2 1 94 2 205 1
l202 -1 3 -97z"/>
<path d="M7564 7316 c-2 -6 -3 -290 -2 -631 l3 -620 125 0 125 0 3 633 2 633
-126 -2 c-84 -1 -127 -5 -130 -13z"/>
<path d="M8624 6727 c-2 -7 -3 -65 -2 -128 l3 -114 133 -5 c72 -3 132 -8 132
-12 0 -5 0 -110 0 -235 l-1 -228 -77 -56 c-42 -31 -110 -78 -149 -103 -40 -26
-73 -49 -73 -50 0 -4 122 -259 127 -265 4 -6 87 64 201 169 51 47 97 87 103
89 6 1 36 -21 67 -51 99 -94 203 -141 387 -175 89 -16 158 -18 633 -17 293 1
534 3 537 6 2 2 12 33 21 69 8 35 31 95 49 134 18 38 32 71 30 73 -1 2 -67 -2
-146 -8 -421 -33 -962 -30 -1136 6 -134 27 -219 77 -285 168 l-28 39 0 347 0
347 -52 7 c-29 3 -147 6 -261 6 -162 0 -209 -3 -213 -13z"/>
<path d="M9420 6247 c0 -184 2 -336 4 -338 2 -2 58 -3 124 -1 109 3 120 5 125
23 5 18 16 19 297 19 283 0 292 -1 297 -20 5 -19 14 -20 134 -20 l129 0 0 335
0 335 -555 0 -555 0 0 -333z m850 18 l0 -105 -295 0 -295 0 0 105 0 105 295 0
295 0 0 -105z"/>
</g></svg>